<svg width="20" height="20" viewBox="0 0 20 20" fill="none" xmlns="http://www.w3.org/2000/svg">
<path fill-rule="evenodd" clip-rule="evenodd" d="M7.39611 12.6019L7.0146 12.8838C6.70296 13.1136 6.30203 13.1895 5.92632 13.0956L2.0478 12.119C1.56233 11.996 1.1837 11.6021 1.11071 11.0996C1.03428 10.582 1.29937 10.0871 1.75337 9.84337L17.0123 1.65434C17.4163 1.43716 17.9109 1.44979 18.303 1.68842C18.729 1.94789 18.9651 2.43404 18.8821 2.93168L16.9662 14.483C16.9049 14.8449 16.6837 15.1552 16.3674 15.3413C16.0736 15.5127 15.7218 15.5617 15.3926 15.4786L12.0449 14.6358L9.70196 17.962C9.46061 18.3059 9.06475 18.5 8.65267 18.5C8.53945 18.5 8.42589 18.4856 8.32041 18.4571C7.7785 18.3148 7.38213 17.837 7.38213 17.2654V12.7851C7.38213 12.7234 7.38686 12.6621 7.39611 12.6019ZM13.3543 8.17262L9.1716 13.0014V15.6075L11.2897 12.6004L11.8857 12.7505L15.2972 13.6093L16.8726 4.11088L13.3543 8.17262ZM3.87745 10.7343L6.14102 11.3043L14.9677 4.78252L3.87745 10.7343Z" fill="#304156"/>
</svg>
